# xmcd
# 
# Track frame offsets:
#     150
#     25044
#     49723
#     71712
#     90767
#     118726
#     145510
#     167878
# 
# Disc length: 2611
# 
# Revision: 1
# Processed by: cddbd v1.5.2PL0 Copyright (c) Steve Scherf et al.
# Submitted via: fre:ac v1.0.31
# 
DISCID=5f0a3108
DTITLE=HUMAN BODY - MAKE YOU SHAKE IT
DYEAR=2007
DGENRE=Soul
TTITLE0=MAKE YOU SHAKE IT
TTITLE1=TOMORROW
TTITLE2=KEEP YOUR HEAD UP
TTITLE3=HIT ME
TTITLE4=AS WE LAY
TTITLE5=PLEASE HELP ME FIND HER
TTITLE6=THERE IS NOBODY
TTITLE7=I BELIEVE WE CAN
EXTD=
EXTT0=
EXTT1=
EXTT2=
EXTT3=
EXTT4=
EXTT5=
EXTT6=
EXTT7=
PLAYORDER=
